<?xml version="1.0" encoding="utf-8"?>
<!-- Generator: Adobe Illustrator 19.2.1, SVG Export Plug-In . SVG Version: 6.00 Build 0)  -->
<svg version="1.1" id="Layer_1" xmlns="http://www.w3.org/2000/svg" xmlns:xlink="http://www.w3.org/1999/xlink" x="0px" y="0px"
	 viewBox="0 0 595 842" style="enable-background:new 0 0 595 842;" xml:space="preserve">
<style type="text/css">
	.st0{fill:#E33D3A;}
	.st1{fill:#E25959;}
	.st2{fill:#FFD200;}
	.st3{fill:#FF8800;}
	.st4{enable-background:new    ;}
	.st5{clip-path:url(#SVGID_2_);}
	.st6{fill:#FFFFFF;}
	.st7{fill:#D21D1A;stroke:#000000;stroke-width:6.5;stroke-miterlimit:10;}
</style>
<path d="M397.1,318.2c-1.3-0.3-3.4-0.5-11.9-0.5c-2.7,0-5.9,0-9.2,0c-3.7,0-7.7,0-11.7,0c-6.4,0-15.4,0-21.7-0.4
	c-10.2-7.4-22-11.4-35-11.8c-28.2-0.9-53.2,11.3-66.8,32.3c-4.6,4.3-13.2,9.2-15.5,9.7c-3.9,0.9-6.4,4.3-6,8.1
	c0.3,2.8,2.3,5.9,6.7,7.3c-0.5,0.5-1,1-1.4,1.6c-3,3.6-4.2,7.7-3.5,11.5c0.1,0.8,0.3,1.5,0.6,2.2c-6.4,11-9.8,23.4-9.8,36.2
	c0,3.2,0.2,6.4,0.6,9.6c-1-0.2-2-0.3-3-0.3c-4.9,0-9.4,2.1-12.4,5.8c-3.3,4.1-4.5,9.6-3.3,15.4c2.5,11.9,20.5,32,34.9,35.4
	c1.4,0.3,2.8,0.5,4,0.5c3.8,0,7-1.6,8.9-4.6c0.6-0.9,1.1-1.9,1.4-2.9c9.8,6.8,21.2,11,33.2,12.2c2.6,8.5,9.6,9.9,14,9.9
	c6.6,0,12.3-2.7,16.3-7.6c0.4,0,0.7,0,1.1,0c2.8,0,6.2-0.2,10.2-0.8c-12.6,14.2-30.9,22.4-44.4,22.4c0,0,0,0,0,0
	c-5.7,0-13.3-1.4-17.4-8.3c-5.4-9.1-14.1-14.8-22.7-14.8c-9,0-15.2,6.3-15.5,15.8c-0.2,5.1,2.5,10.7,7.7,16.1
	c8.8,9.1,25.9,18.3,44.2,18.3c4,0,8-0.5,11.8-1.3c32.4-7.7,61.5-33.6,69.9-62.2c31-23.6,28.5-88.7,18.2-117.6c-0.7-2-1.5-4-2.3-5.9
	c1.2,0.1,2.5,0.2,3.7,0.2c2.8,0,5.6-0.4,8.2-1.2c16.1-4.8,23.4-16.8,23.2-23.3C402.2,321.7,400.2,318.9,397.1,318.2z"/>
<g>
	<path class="st0" d="M229,451.8c-1.6-3-3.4-6-5.1-8.8C225.4,446,227.1,449,229,451.8z"/>
	<path class="st0" d="M344.2,394.2c-10-9-16.9-14.5-26.8-16.5c-6.7-1.4-14.6,0.4-21.6,1.9c-5.3,1.2-9.9,2.2-13.5,1.8
		c-5.5-0.6-9.8-3.5-11.1-7.4c-0.9-2.7-0.6-7.1,5.5-12.5c2.5-2.2,5.6-4.1,8.9-5.6c-4.8,0-9.5-0.9-14.1-3.3
		c-5.9,8.2-20.8,14.1-25.4,12.1c-1-0.5-2.2-1.2-3.2-2.3c-0.1,0.1-0.2,0.2-0.3,0.2c1.2,1.1,2.1,2.7,2.5,4.6c0.8,3.8-0.5,7.8-3.5,10.8
		c-2.6,2.6-5.9,4.1-9,4.1c-2.2,0-4-0.8-5.4-2.1c-6.2,10-9.7,21.8-9.7,34.4c0,5.9,0.8,11.6,2.2,17c6.2,5.1,16.3,25.3,18.6,30.4
		c0.1,0.3,0.3,0.6,0.4,1c10.6,9.8,24.4,16.2,39.6,17.3c-0.2-2.5-0.1-5.2,0-7.9c0.1-3.3,0.2-6.6-0.2-9.4c-0.4-2.3-0.9-4.7-1.6-7.3
		c-2.3-9.6-4.9-20.5,4.3-26.7c1.8-1.2,3.7-1.8,5.7-1.8c8.3,0,15.8,10,19.7,17.6c5.3-8.6,14-14,24.3-15c5.2-0.5,10.4,0.1,14.7,1.7
		c1.5-5.5,2.3-11.2,2.3-17C347.4,407.5,346.3,400.7,344.2,394.2z"/>
</g>
<g>
	<path class="st1" d="M301.3,378.4c-1.9,0.4-3.7,0.8-5.5,1.2c-5.3,1.2-9.9,2.2-13.5,1.8c-5.5-0.6-9.8-3.5-11.1-7.4
		c-0.9-2.7-0.6-7.1,5.5-12.5c0.1-0.1,0.2-0.1,0.3-0.2c-3.9-1.3-8.1-2.1-12.3-2.4c-6.8,4.6-15.3,7.2-18.6,5.7c-1-0.5-2.2-1.2-3.2-2.3
		c-0.1,0.1-0.2,0.2-0.3,0.2c1.2,1.1,2.1,2.7,2.5,4.6c0.8,3.8-0.5,7.8-3.5,10.8c-2.6,2.6-5.9,4.1-9,4.1c-2.2,0-4-0.8-5.4-2.1
		c-6.2,10-9.7,21.8-9.7,34.4c0,5.9,0.8,11.6,2.2,17c4.1,3.4,10.1,13.6,14.2,21.5c7.9,5,17.3,8,27.3,8c5.6,0,10.9-0.9,15.9-2.5
		c-0.2-0.9-0.4-1.8-0.6-2.7c-2.3-9.6-4.9-20.5,4.3-26.7c1.8-1.2,3.7-1.8,5.7-1.8c6.4,0,12.3,5.9,16.4,12.1
		c5.9-8.3,9.3-18.4,9.3-29.4C312.2,398,308.1,387.1,301.3,378.4z"/>
</g>
<path class="st2" d="M304.4,454.5c0-0.1,0-0.2-0.1-0.2c-0.2-0.7-0.4-1.4-0.6-2.2c-1.8-6.7-10.6-19.9-17.3-19.9c-1,0-2,0.3-2.9,0.9
	c-5.9,3.9-4.7,11-2.2,21.4c0.6,2.6,1.2,5.2,1.6,7.7c0.5,3.2,0.4,6.8,0.3,10.3c-0.2,5.4-0.4,11,2,13.4c1,1.1,2.6,1.6,4.9,1.6
	c0.7,0,1.3,0,1.9-0.1c0.2,0,0.4-0.1,0.5-0.1c0.4-0.1,0.8-0.1,1.2-0.2c0.2,0,0.3-0.1,0.5-0.1c0.4-0.1,0.8-0.3,1.2-0.4
	c0.1,0,0.2-0.1,0.3-0.1c0.5-0.2,0.9-0.5,1.3-0.7c0,0,0.1-0.1,0.1-0.1c0.4-0.2,0.7-0.5,1.1-0.8c0.1-0.1,0.2-0.2,0.3-0.2
	c0.3-0.2,0.5-0.5,0.8-0.7c0.1-0.1,0.2-0.2,0.3-0.3c0.3-0.3,0.5-0.6,0.8-0.9c0,0,0.1-0.1,0.1-0.1c0.3-0.3,0.5-0.7,0.8-1.1
	c0.1-0.1,0.1-0.2,0.2-0.3c0.2-0.3,0.3-0.5,0.5-0.8c0.1-0.1,0.1-0.2,0.2-0.4c0.1-0.2,0.2-0.4,0.3-0.6c0.1-0.1,0.1-0.3,0.2-0.4
	c0.1-0.2,0.2-0.4,0.2-0.5c0.2-0.4,0.3-0.7,0.4-1.1c0,0,0,0,0-0.1c0.1-0.2,0.2-0.5,0.2-0.7v0c0.3-0.9,0.4-1.6,0.4-1.7
	c0-0.1,0-0.2,0.1-0.3c1.9-5.9,2.6-10.9,1.1-18.2C304.8,455.8,304.6,455.1,304.4,454.5z"/>
<path class="st3" d="M364.3,325.2c-7.4,0-18.1-0.1-24.7-0.6c-0.6,0-1.1,0-1.4,0c0.5,0.8,1.7,2.2,3.6,3.8l0.5,0.4
	c13,11.1,22.7,13.4,28.6,13.4c0,0,0,0,0,0c2.1,0,4.1-0.3,6.1-0.9c9.1-2.7,14.7-8.4,16.9-12.7c0.8-1.6,1-2.7,1-3.2
	c-1.2-0.1-4.5-0.2-9.6-0.2c-2.7,0-5.9,0-9.2,0C372.3,325.2,368.3,325.2,364.3,325.2z"/>
<path class="st2" d="M202.8,434.3c-1.9,2.3-2.5,5.6-1.8,9.2c1.9,9.2,18.2,27,29.3,29.7c0.8,0.2,1.6,0.3,2.3,0.3
	c1.7,0,2.4-0.7,2.7-1.2c1.3-2.1,0.6-6.6-0.5-9c-3.1-7-12.8-25.4-17.7-29.1c-2.5-1.9-5.1-2.9-7.7-2.9
	C206.7,431.2,204.4,432.3,202.8,434.3z"/>
<path class="st2" d="M228.4,374.7c0.6,3,2.6,3.7,4.2,3.7c2.1,0,4.5-1.1,6.3-3c2.1-2.1,3-4.9,2.5-7.4c-0.3-1.6-1.2-2.8-2.3-3.2
	c-0.2-0.1-0.4-0.1-0.7-0.1c-2,0-5.7,1.8-8.1,4.7C229.4,370.4,228,372.5,228.4,374.7z"/>
<path class="st3" d="M343.1,473.9c-3.7,2.2-7.4,4-10.9,5.4c-11.5,21.1-36.5,37.2-58.2,37.7c-11.2,0.2-19.9-4-24.6-12
	c-5.3-8.9-13.4-12.2-18.6-10.8c-3.5,0.9-5.5,3.8-5.7,8.3c-0.1,3.9,3.3,9.1,9.2,13.9c10.6,8.6,28.7,15.6,45.3,11.6
	C308.4,521.1,334.3,498.8,343.1,473.9z"/>
<path class="st3" d="M227,354.8c-0.2,0-0.2,0.1-0.2,0.1c0,0,0.1,0.2,0.5,0.5c0.8,0.5,3.8,1.9,12.2-0.3c-0.3-1.9-0.2-4.4,0.7-7.2
	C235.3,351.3,229.8,354.2,227,354.8z"/>
<path d="M232.6,382.1L232.6,382.1c-4.1,0-7.1-2.6-7.9-6.7c-0.5-2.7,0.5-5.7,2.7-8.4c2.9-3.5,7.5-6.1,11-6.1c0.8,0,1.5,0.1,2.1,0.4
	c2.3,0.9,4,3.1,4.6,5.9c0.8,3.8-0.5,7.8-3.5,10.8C239,380.6,235.7,382.1,232.6,382.1z M238.4,364.6c-2,0-5.7,1.8-8.1,4.7
	c-0.9,1.1-2.3,3.2-1.9,5.3c0.6,3,2.6,3.7,4.2,3.7c2.1,0,4.5-1.1,6.3-3c2.1-2.1,3-4.9,2.5-7.4c-0.3-1.6-1.2-2.8-2.3-3.2
	C238.9,364.6,238.7,364.6,238.4,364.6z"/>
<path class="st2" d="M362.5,357.8c-2.1-5.9-4.6-11.3-7.6-16.1c-4.5-2.2-9.5-5.4-15-10.1l-0.4-0.4c-6.1-5.1-5.3-7.4-5-8.2
	c0.2-0.6,0.6-1.1,1.2-1.5c-8.3-5.3-17.8-8.3-28.2-8.6c-25.8-0.8-48.5,10.2-60.6,29.4c-3.3,5.2-4.5,10-3.3,13.8
	c0.8,2.8,2.8,4.4,4.1,5.1c2.4,1,17.3-4.1,21.7-12.1c0.2-0.4,0.7-0.8,1.2-0.9c0.5-0.1,1-0.1,1.5,0.2c10.2,6.3,21.7,3.4,31.6,0.2
	c1-0.3,2,0.2,2.3,1.2c0.2,0.5,0.1,1.1-0.2,1.5c6.6-0.2,13.2,0.8,19,3.1c1,0.4,1.4,1.5,1.1,2.4c-0.4,1-1.5,1.4-2.4,1.1
	c-14.3-5.6-33.7-2.9-44.1,6.3c-3.6,3.1-5.1,6.2-4.4,8.6c0.8,2.4,4,4.4,7.9,4.8c3,0.3,7.5-0.7,12.3-1.8c7.4-1.6,15.7-3.5,23.2-2
	c12.1,2.5,20.1,9.7,32.2,20.7l1.5,1.3c0.8,0.7,0.8,1.9,0.1,2.6c-0.4,0.4-0.9,0.6-1.4,0.6c-0.4,0-0.8-0.2-1.2-0.4
	c1.2,5.1,1.8,10.3,1.8,15.6c0,6.3-0.9,12.6-2.6,18.6c1.9,1.1,3.5,2.4,4.7,3.9c0.6,0.8,0.5,2-0.3,2.6c-0.8,0.6-2,0.5-2.6-0.3
	c-3.2-4.2-11.4-6.6-19.5-5.8c-5.9,0.6-16.7,3.4-22.8,15.5c0.2,0.6,0.4,1.2,0.6,1.7c3.2,11,2.4,17.6,0,25.3c-0.2,1.3-0.7,2.9-1.4,4.5
	c8.2,0,22.7-1.8,38.1-12.4C374.6,447.9,372,384.7,362.5,357.8z"/>
<path d="M396.2,321.8c-0.9-0.2-3.1-0.4-11-0.4c-2.7,0-5.9,0-9.2,0c-3.8,0-7.8,0-11.8,0c-6.9,0-16.5-0.1-23-0.5
	c-9.7-7.3-21.1-11.3-33.8-11.7c-27.1-0.8-50.9,10.7-63.7,30.9c-4.9,4.9-14.4,10.3-17.6,11c-1.5,0.3-2.6,1.3-3,2.6
	c-0.4,1.3,0,2.8,1.1,3.9c1,1,3.1,2.3,7.3,2.3c2.3,0,5.2-0.4,8.8-1.4c1.4,3.1,3.7,5.1,5.7,5.9c4.6,2,19.5-3.9,25.4-12.1
	c4.6,2.4,9.3,3.3,14.1,3.3c-3.3,1.5-6.4,3.4-8.9,5.6c-6.1,5.4-6.3,9.8-5.5,12.5c1.2,3.9,5.6,6.8,11.1,7.4c3.6,0.4,8.2-0.6,13.5-1.8
	c7-1.6,15-3.3,21.6-1.9c9.9,2,16.8,7.6,26.8,16.5c2.2,6.5,3.3,13.3,3.3,20.2c0,5.8-0.8,11.5-2.3,17c-4.3-1.6-9.5-2.3-14.7-1.7
	c-10.3,1-19,6.5-24.3,15c-3.9-7.6-11.4-17.6-19.7-17.6c-2,0-3.9,0.6-5.7,1.8c-9.2,6.1-6.6,17-4.3,26.7c0.6,2.6,1.2,5,1.6,7.3
	c0.4,2.8,0.3,6.1,0.2,9.4c-0.2,6.4-0.4,13.1,3.4,17c2,2,4.8,3.1,8.4,3.1c7.5,0,12.3-3.9,15.2-8.3c0.7,0,1.4,0,2.1,0
	c4.8,0,11.6-0.6,19.4-3c-11.7,18.1-33.6,31.6-52.8,32c-6.9,0.1-16.2-1.5-21.3-10.1c-6.2-10.5-16.2-14.2-22.8-12.5
	c-5.2,1.3-8.3,5.6-8.5,11.8c-0.2,5.1,3.7,11.3,10.5,16.9c9,7.4,23.3,13.6,37.8,13.6c3.6,0,7.2-0.4,10.8-1.2
	c31.7-7.5,59.9-33,67.5-60.8c17.1-12.2,22.6-36.5,24.1-54.9c2-23.4-1.7-46.6-6.1-59.3c-1.6-4.5-3.4-8.6-5.5-12.5
	c4.2,1.4,7.7,1.8,10.4,1.8c0,0,0,0,0,0c2.5,0,4.9-0.3,7.1-1c14.6-4.4,20.7-15.1,20.5-19.7C398.6,323.4,397.7,322.1,396.2,321.8z
	 M239.5,355.1c-8.3,2.2-11.4,0.8-12.2,0.3c-0.4-0.3-0.5-0.5-0.5-0.5c0,0,0.1-0.1,0.2-0.1c2.8-0.6,8.3-3.5,13.2-6.9
	C239.3,350.8,239.2,353.2,239.5,355.1z M303.8,474.6c0,0.1-0.1,0.2-0.1,0.3c-0.1,0.5-2.3,12.5-13.7,12.5c-2.2,0-3.8-0.5-4.9-1.6
	c-2.3-2.4-2.1-8-2-13.4c0.1-3.5,0.2-7.1-0.3-10.3c-0.4-2.5-1-5.1-1.6-7.7c-2.5-10.4-3.7-17.5,2.2-21.4c0.9-0.6,1.9-0.9,2.9-0.9
	c6.7,0,15.5,13.2,17.3,19.9C306.7,461.9,306,467.6,303.8,474.6z M279.6,527.9c-16.7,3.9-34.8-3-45.3-11.6c-5.9-4.8-9.3-10-9.2-13.9
	c0.1-4.4,2.2-7.4,5.7-8.3c5.3-1.4,13.3,1.9,18.6,10.8c4.7,7.9,13.4,12.2,24.6,12c21.7-0.4,46.7-16.6,58.2-37.7
	c3.5-1.4,7.2-3.2,10.9-5.4C334.3,498.8,308.4,521.1,279.6,527.9z M362.5,357.8c9.5,26.9,12.1,90.1-17.1,110.2
	c-15.4,10.6-29.9,12.4-38.1,12.4c0.7-1.6,1.2-3.2,1.4-4.5c2.4-7.7,3.2-14.4,0-25.3c-0.1-0.5-0.3-1.1-0.6-1.7
	c6.1-12.1,16.9-14.9,22.8-15.5c8.1-0.8,16.3,1.6,19.5,5.8c0.6,0.8,1.8,1,2.6,0.3c0.8-0.6,1-1.8,0.3-2.6c-1.2-1.5-2.8-2.8-4.7-3.9
	c1.7-6,2.6-12.3,2.6-18.6c0-5.3-0.6-10.5-1.8-15.6c0.3,0.3,0.8,0.4,1.2,0.4c0.5,0,1-0.2,1.4-0.6c0.7-0.8,0.6-1.9-0.1-2.6l-1.5-1.3
	c-12.1-10.9-20.1-18.2-32.2-20.7c-7.4-1.5-15.8,0.3-23.2,2c-4.8,1.1-9.3,2.1-12.3,1.8c-3.9-0.4-7.1-2.3-7.9-4.8
	c-0.8-2.4,0.8-5.4,4.4-8.6c10.4-9.2,29.8-11.9,44.1-6.3c1,0.4,2-0.1,2.4-1.1c0.4-1-0.1-2-1.1-2.4c-5.8-2.3-12.4-3.3-19-3.1
	c0.3-0.4,0.3-1,0.2-1.5c-0.3-1-1.4-1.5-2.3-1.2c-10,3.2-21.4,6.1-31.6-0.2c-0.4-0.3-1-0.3-1.5-0.2c-0.5,0.1-0.9,0.5-1.2,0.9
	c-4.3,7.9-19.3,13.1-21.7,12.1c-1.4-0.6-3.3-2.3-4.1-5.1c-1.1-3.8,0-8.5,3.3-13.8c12.1-19.2,34.7-30.2,60.6-29.4
	c10.4,0.3,19.9,3.3,28.2,8.6c-0.5,0.4-0.9,0.8-1.2,1.5c-0.3,0.8-1.1,3.1,5,8.2l0.4,0.4c5.5,4.7,10.5,7.9,15,10.1
	C357.8,346.5,360.4,351.9,362.5,357.8z M393.9,328.5c-2.2,4.4-7.8,10-16.9,12.7c-1.9,0.6-4,0.9-6.1,0.9c0,0,0,0,0,0
	c-5.9,0-15.7-2.3-28.6-13.4l-0.5-0.4c-1.9-1.6-3.1-3-3.6-3.8c0.3,0,0.8,0,1.4,0c6.6,0.5,17.2,0.6,24.7,0.6c4,0,8,0,11.8,0
	c3.3,0,6.4,0,9.2,0c5.1,0,8.4,0.1,9.6,0.2C394.9,325.8,394.7,326.9,393.9,328.5z"/>
<path d="M267.6,339.3c-3,2.2-2.1,5,1.2,5.4c3.3,0.4,3.6,0.6,6.6-1.7c3.3-2.5,3.7-6.6,0-6.2C271.8,337.3,269.3,338.1,267.6,339.3z"/>
<circle cx="255.2" cy="341" r="3.7"/>
<circle cx="298.3" cy="330.6" r="3.7"/>
<path d="M232.6,477.2L232.6,477.2c-1,0-2-0.1-3.1-0.4c-12.6-3-29.9-22-32.1-32.5c-1-4.7-0.1-9.1,2.5-12.3c2.3-2.8,5.8-4.4,9.6-4.4
	c3.4,0,6.8,1.3,10,3.7c6.1,4.7,16.6,25.4,18.8,30.6c0.9,2.1,2.8,8.6,0.2,12.5C237.5,475.6,235.8,477.2,232.6,477.2z M209.4,431.2
	c-2.7,0-5,1.1-6.7,3.1c-1.9,2.3-2.5,5.6-1.8,9.2c1.9,9.2,18.2,27,29.3,29.7c0.8,0.2,1.6,0.3,2.3,0.3c1.7,0,2.4-0.7,2.7-1.2
	c1.3-2.1,0.6-6.6-0.5-9c-3.1-7-12.8-25.4-17.7-29.1C214.6,432.2,212,431.2,209.4,431.2z"/>
<g>
	<g>
		<g class="st4">
			<g class="st4">
				<defs>
					<path id="SVGID_1_" class="st4" d="M244.5,477.3c-1.2-0.7-2.8-1.7-4-2.4c-1.8-1.3-4.3-3-6-4.4c-2.4-1.9-5.3-4.8-7.4-7
						c-1.4-1.4-3.1-3.5-4.3-5.2c-1.1-1.5-2.5-3.6-3.5-5.1c-0.9-1.4-1.9-3.2-2.6-4.7c-0.9-1.6-1.8-3.8-2.5-5.5
						c-0.6-1.5-1.3-3.6-1.9-5.1c-0.6-1.7-1.2-4.1-1.6-5.9c-0.7-3.3-1.4-7.8-1.6-11.1c-0.2-3.1-0.3-7.2,0.1-10.3
						c0.2-1.8,0.4-4.3,0.8-6.1c0.3-1.6,0.7-3.8,1.2-5.4c0.5-1.8,1.1-4.1,1.7-5.8c0.6-1.5,1.3-3.6,2-5.1c0.7-1.7,1.8-3.8,2.7-5.4
						c3-5.5,6.3-9.5,6.3-9.5c2-2.4,4.7-5.5,6.9-7.6c1.3-1.3,3.2-2.9,4.6-4c1.1-0.9,2.7-2.1,3.8-2.9c1.6-1.1,3.8-2.4,5.5-3.4
						c1.1-0.6,2.5-1.4,3.6-1.9c3-1.4,6.3-3,12-4.5c9-2.5,18.2-3.2,27.4-2.1c4.6,0.6,9.2,1.6,13.6,3.1c2.5,0.8,4,1.4,7.1,2.8
						c1.7,0.7,3.8,1.9,5.4,2.8c-9.9-5.6-21.8-8.1-34.6-6.4c12.8-1.7,24.7,0.7,34.6,6.4c2.4,1.5,5.7,3.5,8,5.3c1.5,1.2,3.5,2.9,5,4.2
						c1.1,1,2.6,2.5,3.7,3.6c1.3,1.4,3,3.4,4.2,4.9c1,1.2,2.2,3,3.1,4.3c1,1.5,2.3,3.6,3.2,5.3c0.8,1.4,1.7,3.4,2.4,4.8
						c0.8,1.6,1.6,3.9,2.2,5.6c0.5,1.6,1.1,3.7,1.6,5.3c0.5,1.7,1,4.1,1.3,6c0.2,1.7,0.6,3.9,0.7,5.6c0.2,1.9,0.3,4.4,0.3,6.2
						c0,3.4-0.4,7.9-0.9,11.3c-0.3,2-0.8,4.7-1.4,6.6c-1.6,5.3-2.3,7.7-3.8,10.8c-0.7,1.4-1.6,3.4-2.4,4.8c-0.9,1.6-2.1,3.6-3.1,5.1
						c-2.7,4-5.3,7-7,8.9c-1.8,1.9-4.3,4.5-8.3,7.6c-1.1,0.9-2.7,2-3.8,2.8c-1.6,1.1-3.8,2.4-5.5,3.4c-2.8,1.6-7.1,3.4-7.9,3.8
						c-2.3,0.9-5.4,2-10.2,3.2c-8.5,2-17.3,2.3-26.1,1c-5.9-0.9-10.6-2.4-11.9-2.8c-2.8-1-3.6-1.2-7.1-2.8
						C248.2,479.3,246.1,478.2,244.5,477.3z"/>
				</defs>
				<clipPath id="SVGID_2_">
					<use xlink:href="#SVGID_1_"  style="overflow:visible;"/>
				</clipPath>
				<g class="st5">
					<g>
						<g>
							<path class="st6" d="M291.2,416c6.7,1.8,6.8,1.8,10.5,2.6c-4-4.8-5.1-6.1-7.1-8.5c3.2-6.1,3.3-6.3,4.7-9.5
								c-5.7,2.8-5.7,2.8-9,4.2c-4.1-5.3-4.4-5.7-6.4-8.5c0.4,7.1,0.4,7.1,0.6,10.9c-6.3,2.4-6.3,2.4-9.8,3.6
								c6.4,2.2,6.5,2.2,10.1,3.3c0.2,6.8,0.3,7.5,0.4,11.4C289,419.5,289.3,419.1,291.2,416 M274.6,429.7c0-0.1-0.1-0.3-0.1-0.4
								c-0.1,0-0.2-0.1-0.3-0.1c-3.8,2.8-8.6,5.7-16.6,5.2c0,0,0,0,0,0c-23.8-3.6-26.5-30.9-9.5-43.6c4.4-3.3,15.7-9.6,27,1.3
								c0,0,0,0,0,0c0.1,0,0.2,0,0.4,0c0-0.1,0.1-0.2,0.1-0.3c-6.8-11.5-13.8-12.7-16.4-13.2c0,0,0,0,0,0
								c-24.7-1.7-44.8,32.9-25.1,54.7c5.8,6.4,11.8,7.5,15.5,8.3c0,0,0,0,0,0C267.1,442.8,274.6,429.9,274.6,429.7"/>
						</g>
					</g>
				</g>
			</g>
		</g>
	</g>
</g>
<path class="st7" d="M330.5,314.5l-67.8,5.7c0,0-0.2-21.8-0.2-31c0-9.2,2.4-9.4,10.2-10c4-0.3,35.5-3,43.8-3.7
	c7.6-0.6,8,2.3,8.8,7.2S330.5,314.5,330.5,314.5z"/>
<g>
	<path d="M269.5,352.5c-4.2,4.2-15,3-18.3,2c-3.4-1.1-6.8-2.5-8.3-3.7c-1.5-1.2-1.2-1.3,0-1.1s2.2,1.6,6.2,1.4
		c4.1-0.2,12.5-5.6,18.3-5C272.9,346.6,273,348.9,269.5,352.5z"/>
	<path d="M275.4,351.5c5.3,2.7,15.1-1.9,18-4c2.9-2.1,5.6-4.6,6.7-6.2s0.7-1.6-0.4-1c-1.1,0.6-1.5,2.2-5.5,3.3
		c-3.9,1.1-13.7-1.3-18.9,1.1C270.3,347.1,271,349.3,275.4,351.5z"/>
</g>
<path d="M298.7,276.7l-9.6,0.7c0,0-0.2-2.2-0.2-3.3c-0.1-1.1,0.4-1.2,1.6-1.3s4.5-0.3,6.2-0.4c1.7-0.1,1.7-0.1,1.8,1.3
	C298.7,274.9,298.7,276.7,298.7,276.7z"/>
<g>
	<rect x="307.9" y="274.9" width="4.2" height="28.9"/>
	<path d="M312.1,303.8c-1.4,0.2-2.8,0.3-4.2,0.4l-0.5,0l0-0.6c-0.2-2.4-0.3-4.8-0.3-7.2c0-1.2,0-2.4,0-3.6c0-1.2,0.1-2.4,0.2-3.6
		l0.3-3.6c0.1-1.2,0.1-2.4,0.1-3.6c0-1.2,0-2.4,0-3.6c0-1.2-0.1-2.4-0.2-3.6l0-0.5l0.6,0c1.4-0.1,2.8-0.2,4.2-0.3l0.8,0l0,0.8
		c0.1,2.4,0.1,4.8,0.2,7.2c0,1.2,0.1,2.4,0,3.6c0,1.2,0,2.4,0,3.6c0,2.4-0.2,4.8-0.3,7.2c-0.2,2.4-0.3,4.8-0.6,7.2L312.1,303.8
		L312.1,303.8z M312,303.6c-0.3-2.4-0.5-4.7-0.6-7.1c-0.1-2.4-0.2-4.8-0.3-7.2c0-1.2-0.1-2.4,0-3.6c0-1.2,0-2.4,0-3.6
		c0.1-2.4,0.1-4.8,0.2-7.2l0.8,0.8c-1.4-0.1-2.8-0.2-4.2-0.3l0.5-0.5c-0.1,1.2-0.1,2.4-0.2,3.6c0,1.2-0.1,2.4,0,3.6
		c0,1.2,0.1,2.4,0.1,3.6l0.3,3.6c0.1,1.2,0.2,2.4,0.2,3.6c0,1.2,0,2.4,0,3.6c0,2.4-0.1,4.8-0.3,7.2l-0.5-0.5
		C309.2,303.3,310.6,303.4,312,303.6z"/>
</g>
</svg>
